<svg id="Capa_1" enable-background="new 0 0 511.88 511.88" height="512" viewBox="0 0 511.88 511.88" width="512" xmlns="http://www.w3.org/2000/svg" fill="#264653"><g><path d="m496.88 67.761h-80.395l-155.802-51.935c-3.151-1.05-6.562-1.025-9.698.072l-148.178 51.863h-87.807c-8.284 0-15 6.716-15 15v338.83c0 8.284 6.716 15 15 15h135.587v30.233h-45.235c-8.284 0-15 6.716-15 15s6.716 15 15 15h301.176c8.284 0 15-6.716 15-15s-6.716-15-15-15h-45.235v-30.234h135.587c8.284 0 15-6.716 15-15v-338.829c0-8.285-6.715-15-15-15zm-323.82 54.591c80.348 28.187 79.235 28.116 82.88 28.116 3.473 0 2.362.071 82.88-26.815v39.16l-82.88 31.88-82.88-31.88zm82.998-76.445 110.565 36.855-110.565 36.855-105.3-36.855zm75.234 420.917h-150.705v-30.234h150.706v30.234zm150.588-60.234c-66.111 0-352.003 0-451.88 0v-308.829h72.797l40.263 14.092v61.262c0 6.206 3.822 11.772 9.615 14 100.095 38.595 99.284 38.65 103.265 38.65 3.979 0 3.213.03 103.265-38.65 5.793-2.228 9.615-7.794 9.615-14v-59.462l30.24-10.08v84.602c0 8.284 6.716 15 15 15s15-6.716 15-15v-90.414h52.82z"/><path d="m135.469 271.059h-60.235c-8.284 0-15 6.716-15 15v60.235c0 8.284 6.716 15 15 15h60.235c8.284 0 15-6.716 15-15v-60.235c0-8.284-6.716-15-15-15zm-15 60.235h-30.235v-30.235h30.235z"/><path d="m195.705 271.059c-8.284 0-15 6.716-15 15s6.716 15 15 15h240.941c8.284 0 15-6.716 15-15s-6.716-15-15-15z"/><path d="m436.646 331.294h-240.941c-8.284 0-15 6.716-15 15s6.716 15 15 15h240.941c8.284 0 15-6.716 15-15s-6.716-15-15-15z"/></g></svg>