<svg id="Layer_1" enable-background="new 0 0 512 512" height="512" viewBox="0 0 512 512" width="512" xmlns="http://www.w3.org/2000/svg" fill="#264653"><g><path d="m494.5 34.936h-477c-9.649 0-17.5 7.851-17.5 17.5v61.595c0 9.697 15 9.697 15 0v-61.595c0-1.378 1.121-2.5 2.5-2.5h477c1.379 0 2.5 1.122 2.5 2.5v365.739c0 1.378-1.121 2.5-2.5 2.5h-96.112v-15.606h75.434c4.143 0 7.5-3.358 7.5-7.5v-78.539c0-9.697-15-9.697-15 0v71.039h-67.934v-33.277c.244.021.49.042.721.063 6.226.547 13.97 1.228 19.335-4.147 5.359-5.369 4.681-13.121 4.136-19.35-.587-6.685.045-8.515 5.183-12.786 13.229-11 13.475-22.778 0-33.98-5.138-4.274-5.767-6.102-5.183-12.788 1.468-16.777-6.368-24.999-23.471-23.496-6.675.586-8.486-.048-12.742-5.187-10.983-13.26-22.769-13.505-33.956 0-4.256 5.138-6.066 5.775-12.741 5.187-16.789-1.475-24.97 6.405-23.472 23.496.584 6.687-.045 8.514-5.183 12.788-13.229 10.999-13.474 22.779 0 33.98 5.138 4.274 5.767 6.102 5.183 12.788-1.575 17.969 7.007 24.917 24.19 23.433v33.278h-294.709v-309.53h420.643v198.489c0 9.697 15 9.697 15 0v-205.989c0-4.142-3.357-7.5-7.5-7.5h-435.643c-4.143 0-7.5 3.358-7.5 7.5v324.528c0 4.142 3.357 7.5 7.5 7.5h302.209v15.606h-322.888c-1.379 0-2.5-1.122-2.5-2.5v-266.145c0-9.697-15-9.697-15 0v266.145c0 9.649 7.851 17.5 17.5 17.5h322.888v33.95c1.068 6.164 4.623 8.431 10.663 6.8l18.337-8.529 18.337 8.529c4.537 2.11 10.663-1.225 10.663-6.8v-33.95h96.112c9.649 0 17.5-7.851 17.5-17.5v-365.739c0-9.65-7.851-17.5-17.5-17.5zm-156.145 306.975c-7.508.661-7.872.259-7.216-7.245 1.008-11.517-1.641-18.237-10.536-25.631-6.086-5.061-6.085-5.85 0-10.911 8.895-7.394 11.545-14.114 10.536-25.63-.656-7.505-.292-7.903 7.216-7.246 11.518 1.015 18.229-1.654 25.606-10.561 5.041-6.084 5.812-6.084 10.853 0 7.379 8.907 14.088 11.572 25.606 10.561 7.509-.661 7.872-.259 7.216 7.245-1.008 11.517 1.641 18.236 10.536 25.63 6.085 5.061 6.088 5.852-.001 10.912-8.895 7.395-11.545 14.112-10.536 25.629.659 7.504.293 7.907-7.214 7.247-4.711-.414-10.055-.884-14.759 1.07-4.553 1.891-7.754 5.754-10.849 9.491-1.458 1.76-4.119 4.973-5.427 5.548-1.307-.575-3.968-3.788-5.426-5.548-3.095-3.736-6.295-7.6-10.849-9.491-4.854-1.48-9.773-1.837-14.756-1.07zm34.196 110.914c-2.006-.933-4.32-.933-6.326 0l-10.837 5.041v-92.349c3.559 3.913 7.95 7.546 14 7.546s10.441-3.632 14-7.545v92.348z"/><path d="m97.263 143.321h258.547c9.697 0 9.697-15 0-15h-258.547c-9.698 0-9.698 15 0 15z"/><path d="m422.237 181.439c0-4.142-3.357-7.5-7.5-7.5h-317.474c-9.697 0-9.697 15 0 15h317.475c4.142 0 7.499-3.358 7.499-7.5z"/><path d="m285.137 227.056c0-4.142-3.357-7.5-7.5-7.5h-180.374c-9.697 0-9.697 15 0 15h180.374c4.142 0 7.5-3.358 7.5-7.5z"/><path d="m186.651 331.598c-4.089.007-8.179.012-12.268.015-7.867.006-12.198-2.091-13.805-10.433-1.467-7.615-12.451-6.645-14.464 0-.891 2.943-5.391 11.368-9.322 10.679-2.083-.365-2.993-3.578-3.763-5.242-1.499-3.239-2.591-6.672-3.526-10.112-3.948-14.534-4.736-29.709-7.206-44.517-1.432-8.587-14.521-6.159-14.732 1.994-.672 25.971-4.918 51.586-14.164 75.929-3.431 9.033 11.064 12.939 14.464 3.988 3.565-9.386 6.395-18.997 8.591-28.751 1.178 3.554 2.583 7.04 4.298 10.431 4.38 8.656 13.313 13.777 22.871 9.927 3.411-1.374 6.523-3.776 9.172-6.699 7.096 8.183 17.653 7.812 27.502 7.8 14.847-.019 29.694-.054 44.542-.095 9.651-.027 9.669-15.027 0-15-12.73.036-25.46.065-38.19.086z"/><path d="m369.388 332.874c16.153 0 29.295-13.141 29.295-29.294s-13.142-29.294-29.295-29.294c-16.152 0-29.294 13.142-29.294 29.294s13.141 29.294 29.294 29.294zm0-43.588c7.882 0 14.295 6.413 14.295 14.294s-6.413 14.294-14.295 14.294-14.294-6.412-14.294-14.294 6.412-14.294 14.294-14.294z"/></g></svg>