<svg id="Capa_1" enable-background="new 0 0 512.168 512.168" height="512" viewBox="0 0 512.168 512.168" width="512" xmlns="http://www.w3.org/2000/svg" fill="#264653"><g><path d="m82.996 60.78h105.846c4.143 0 7.5-3.357 7.5-7.5s-3.357-7.5-7.5-7.5h-105.846c-8.914 0-16.166 7.253-16.166 16.167v27.311c0 8.914 7.252 16.167 16.166 16.167h241.679c8.914 0 16.166-7.253 16.166-16.167v-27.311c0-8.914-7.252-16.167-16.166-16.167h-105.846c-4.143 0-7.5 3.357-7.5 7.5s3.357 7.5 7.5 7.5h105.846c.643 0 1.166.523 1.166 1.167v27.311c0 .644-.523 1.167-1.166 1.167h-241.679c-.643 0-1.166-.523-1.166-1.167v-27.311c0-.643.524-1.167 1.166-1.167z"/><path d="m317.191 130.427h-226.71c-4.143 0-7.5 3.357-7.5 7.5s3.357 7.5 7.5 7.5h226.71c4.143 0 7.5-3.357 7.5-7.5s-3.358-7.5-7.5-7.5z"/><path d="m317.191 429.286c4.143 0 7.5-3.357 7.5-7.5s-3.357-7.5-7.5-7.5h-226.71c-4.143 0-7.5 3.357-7.5 7.5s3.357 7.5 7.5 7.5z"/><path d="m336.124 230.952c-30.586-30.583-80.351-30.583-110.935 0-30.657 30.655-30.661 80.275 0 110.936 30.584 30.584 80.348 30.583 110.935 0 30.656-30.658 30.66-80.277 0-110.936zm-10.606 100.328c-24.733 24.731-64.982 24.74-89.722 0-5.542-5.542-9.917-11.937-13.036-18.878h94.43c4.143 0 7.5-3.357 7.5-7.5s-3.357-7.5-7.5-7.5h-99.017c-2.137-12.307-.618-24.412 3.766-35.091h95.25c4.143 0 7.5-3.357 7.5-7.5s-3.357-7.5-7.5-7.5h-86.477c1.572-1.999 3.256-3.926 5.082-5.752 24.737-24.737 64.984-24.737 89.721 0h.001c24.796 24.795 24.798 64.925.002 89.721z"/><path d="m452.661 447.817c-2.928-2.928-7.677-2.929-10.606.001-2.929 2.929-2.929 7.678.001 10.606l10.725 10.724c1.464 1.464 3.384 2.196 5.303 2.196s3.839-.732 5.304-2.197c2.929-2.929 2.929-7.678-.001-10.606z"/><path d="m489.518 414.169-2.798-2.798c-2.93-2.928-7.678-2.928-10.607 0-2.929 2.93-2.929 7.678 0 10.607l2.798 2.798c16.514 16.514 16.514 43.384.001 59.897-16.516 16.514-43.385 16.514-59.898 0l-49.275-49.275c-4.882-4.882-4.881-12.781.001-17.661l36.356-36.356c.003-.003.007-.006.01-.009s.006-.007.009-.01l5.861-5.861c4.869-4.869 12.791-4.869 17.66 0l24.991 24.991c2.93 2.928 7.678 2.928 10.607 0 2.929-2.93 2.929-7.678 0-10.607l-24.991-24.991c-10.719-10.717-28.156-10.717-38.875 0l-.567.567-23.958-23.957c-.772-.772-.917-1.979-.359-3.004 14.426-26.518 17.423-58.941 6.999-88.518v-232.32c0-9.739-7.924-17.662-17.663-17.662h-342.28c-9.739 0-17.662 7.923-17.662 17.662v398.666c0 4.143 3.357 7.5 7.5 7.5s7.5-3.357 7.5-7.5v-398.666c0-1.468 1.194-2.662 2.662-2.662h342.28c1.469 0 2.663 1.194 2.663 2.662v204.109c-3.234-4.372-6.8-8.542-10.718-12.459-34.319-34.316-83.887-39.798-122.498-22.112h-144.786c-4.143 0-7.5 3.357-7.5 7.5s3.357 7.5 7.5 7.5h120.901c-3.127 2.583-6.136 5.347-9.003 8.302-9.525 9.814-16.979 21.156-22.155 33.47h-89.743c-4.143 0-7.5 3.357-7.5 7.5s3.357 7.5 7.5 7.5h84.697c-3.382 13.171-4.395 27.343-2.523 41.771h-82.174c-4.143 0-7.5 3.357-7.5 7.5s3.357 7.5 7.5 7.5h85.195c4.232 15.339 11.793 29.568 22.302 41.772h-107.497c-4.143 0-7.5 3.357-7.5 7.5s3.357 7.5 7.5 7.5h123.3c33.788 26.174 80.754 30.525 118.979 9.721 1.012-.549 2.209-.402 2.979.369l23.959 23.959c-.231.339-8.618 7.341-8.618 20.005 0 7.343 2.86 14.246 8.052 19.438l9.352 9.352v39.147c0 1.469-1.194 2.663-2.663 2.663h-342.281c-1.468 0-2.662-1.194-2.662-2.663v-48.189c0-4.143-3.357-7.5-7.5-7.5s-7.5 3.357-7.5 7.5v48.189c0 9.739 7.923 17.663 17.662 17.663h342.28c9.739 0 17.663-7.924 17.663-17.663v-24.147l24.924 24.924c22.361 22.361 58.747 22.361 81.111-.001 22.362-22.364 22.362-58.751 0-81.113zm-143.172-42.171c-5.513-5.515-13.855-6.695-20.758-2.938-36.742 19.999-82.866 13.059-112.163-16.879-35.507-36.281-35.648-94.793-.283-131.233 36.579-37.693 96.834-38.211 134.016-1.029 30.223 30.223 35.518 75.809 16.15 111.413-3.763 6.915-2.585 15.267 2.929 20.779l23.957 23.957-19.888 19.888z"/></g></svg>