<?xml version="1.0" standalone="no"?><svg xmlns="http://www.w3.org/2000/svg" viewBox="0 0 1440 320"><path fill="#f3f4f5" fill-opacity="1" d="M0,128L24,106.7C48,85,96,43,144,74.7C192,107,240,213,288,256C336,299,384,277,432,266.7C480,256,528,256,576,266.7C624,277,672,299,720,304C768,309,816,299,864,277.3C912,256,960,224,1008,197.3C1056,171,1104,149,1152,160C1200,171,1248,213,1296,202.7C1344,192,1392,128,1416,96L1440,64L1440,0L1416,0C1392,0,1344,0,1296,0C1248,0,1200,0,1152,0C1104,0,1056,0,1008,0C960,0,912,0,864,0C816,0,768,0,720,0C672,0,624,0,576,0C528,0,480,0,432,0C384,0,336,0,288,0C240,0,192,0,144,0C96,0,48,0,24,0L0,0Z"></path></svg>